<svg width="100" height="100" viewBox="0 0 100 100" fill="none" xmlns="http://www.w3.org/2000/svg">
<rect width="100" height="100" rx="12" fill="#E5704B"/>
<path d="M12.424 43.878C14.404 43.878 15.9147 44.3327 16.956 45.242C17.9973 46.1367 18.518 47.5153 18.518 49.378V56H14.624V54.46C14.0227 55.6187 12.8493 56.198 11.104 56.198C10.18 56.198 9.38067 56.0367 8.706 55.714C8.03133 55.3913 7.518 54.9587 7.166 54.416C6.82867 53.8587 6.66 53.228 6.66 52.524C6.66 51.3947 7.09267 50.522 7.958 49.906C8.82333 49.2753 10.158 48.96 11.962 48.96H14.338C14.2647 47.6987 13.4213 47.068 11.808 47.068C11.236 47.068 10.6567 47.1633 10.07 47.354C9.48333 47.53 8.98467 47.7793 8.574 48.102L7.166 45.264C7.826 44.824 8.62533 44.4867 9.564 44.252C10.5173 44.0027 11.4707 43.878 12.424 43.878ZM12.27 53.558C12.754 53.558 13.1793 53.4407 13.546 53.206C13.9127 52.9713 14.1767 52.6267 14.338 52.172V51.138H12.534C11.3167 51.138 10.708 51.5413 10.708 52.348C10.708 52.7147 10.8473 53.008 11.126 53.228C11.4047 53.448 11.786 53.558 12.27 53.558ZM20.0565 39.676H24.2365V56H20.0565V39.676ZM38.0409 50.06C38.0409 50.0893 38.0189 50.434 37.9749 51.094H29.3069C29.4829 51.71 29.8203 52.1867 30.3189 52.524C30.8323 52.8467 31.4703 53.008 32.2329 53.008C32.8049 53.008 33.2963 52.9273 33.7069 52.766C34.1323 52.6047 34.5576 52.3407 34.9829 51.974L37.1829 54.262C36.0243 55.5527 34.3303 56.198 32.1009 56.198C30.7076 56.198 29.4829 55.934 28.4269 55.406C27.3709 54.878 26.5496 54.1447 25.9629 53.206C25.3909 52.2673 25.1049 51.204 25.1049 50.016C25.1049 48.8427 25.3836 47.794 25.9409 46.87C26.5129 45.9313 27.2976 45.198 28.2949 44.67C29.2923 44.142 30.4143 43.878 31.6609 43.878C32.8489 43.878 33.9269 44.1273 34.8949 44.626C35.8629 45.11 36.6256 45.8213 37.1829 46.76C37.7549 47.684 38.0409 48.784 38.0409 50.06ZM31.6829 46.848C31.0376 46.848 30.4949 47.0313 30.0549 47.398C29.6296 47.7647 29.3583 48.2633 29.2409 48.894H34.1249C34.0076 48.2633 33.7289 47.7647 33.2889 47.398C32.8636 47.0313 32.3283 46.848 31.6829 46.848ZM46.1139 56L43.9799 52.876L41.6919 56H37.1599L41.6919 50.038L37.2919 44.076H41.9999L44.1119 47.09L46.3119 44.076H50.7339L46.3339 49.884L50.8879 56H46.1139ZM12.754 78.82L11.522 80.074V83H7.342V66.676H11.522V75.234L15.79 71.076H20.74L15.79 76.18L21.158 83H16.098L12.754 78.82ZM25.2631 72.506C25.6884 71.9633 26.2384 71.56 26.9131 71.296C27.6024 71.0173 28.3871 70.878 29.2671 70.878V74.64C28.8857 74.596 28.5704 74.574 28.3211 74.574C27.4264 74.574 26.7224 74.816 26.2091 75.3C25.7104 75.784 25.4611 76.5247 25.4611 77.522V83H21.2811V71.076H25.2631V72.506ZM34.8881 70.878C36.8681 70.878 38.3787 71.3327 39.4201 72.242C40.4614 73.1367 40.9821 74.5153 40.9821 76.378V83H37.0881V81.46C36.4867 82.6187 35.3134 83.198 33.5681 83.198C32.6441 83.198 31.8447 83.0367 31.1701 82.714C30.4954 82.3913 29.9821 81.9587 29.6301 81.416C29.2927 80.8587 29.1241 80.228 29.1241 79.524C29.1241 78.3947 29.5567 77.522 30.4221 76.906C31.2874 76.2753 32.6221 75.96 34.4261 75.96H36.8021C36.7287 74.6987 35.8854 74.068 34.2721 74.068C33.7001 74.068 33.1207 74.1633 32.5341 74.354C31.9474 74.53 31.4487 74.7793 31.0381 75.102L29.6301 72.264C30.2901 71.824 31.0894 71.4867 32.0281 71.252C32.9814 71.0027 33.9347 70.878 34.8881 70.878ZM34.7341 80.558C35.2181 80.558 35.6434 80.4407 36.0101 80.206C36.3767 79.9713 36.6407 79.6267 36.8021 79.172V78.138H34.9981C33.7807 78.138 33.1721 78.5413 33.1721 79.348C33.1721 79.7147 33.3114 80.008 33.5901 80.228C33.8687 80.448 34.2501 80.558 34.7341 80.558ZM46.8545 83.198C45.8572 83.198 44.8745 83.088 43.9065 82.868C42.9385 82.6333 42.1612 82.3327 41.5745 81.966L42.8285 79.106C43.3712 79.4433 44.0165 79.7147 44.7645 79.92C45.5125 80.1107 46.2532 80.206 46.9865 80.206C47.6612 80.206 48.1378 80.14 48.4165 80.008C48.7099 79.8613 48.8565 79.656 48.8565 79.392C48.8565 79.128 48.6805 78.9447 48.3285 78.842C47.9912 78.7247 47.4485 78.6147 46.7005 78.512C45.7472 78.3947 44.9332 78.2407 44.2585 78.05C43.5985 77.8593 43.0265 77.5073 42.5425 76.994C42.0585 76.4807 41.8165 75.762 41.8165 74.838C41.8165 74.0753 42.0438 73.4007 42.4985 72.814C42.9532 72.2127 43.6132 71.7433 44.4785 71.406C45.3585 71.054 46.4072 70.878 47.6245 70.878C48.4899 70.878 49.3479 70.966 50.1985 71.142C51.0492 71.318 51.7605 71.5673 52.3325 71.89L51.0785 74.728C50.0225 74.1413 48.8785 73.848 47.6465 73.848C46.9865 73.848 46.5025 73.9287 46.1945 74.09C45.8865 74.2367 45.7325 74.4347 45.7325 74.684C45.7325 74.9627 45.9012 75.1607 46.2385 75.278C46.5759 75.3807 47.1332 75.4907 47.9105 75.608C48.8932 75.7547 49.7072 75.9233 50.3525 76.114C50.9979 76.3047 51.5552 76.6567 52.0245 77.17C52.5085 77.6687 52.7505 78.3727 52.7505 79.282C52.7505 80.03 52.5232 80.7047 52.0685 81.306C51.6139 81.8927 50.9392 82.3547 50.0445 82.692C49.1645 83.0293 48.1012 83.198 46.8545 83.198ZM61.2178 70.878C62.6991 70.878 63.8871 71.318 64.7818 72.198C65.6911 73.078 66.1458 74.4053 66.1458 76.18V83H61.9658V76.862C61.9658 75.234 61.3131 74.42 60.0078 74.42C59.2891 74.42 58.7098 74.6547 58.2698 75.124C57.8444 75.5933 57.6318 76.2973 57.6318 77.236V83H53.4518V71.076H57.4338V72.374C57.9031 71.89 58.4604 71.5233 59.1058 71.274C59.7511 71.01 60.4551 70.878 61.2178 70.878ZM73.826 83.198C72.55 83.198 71.3987 82.934 70.372 82.406C69.3453 81.878 68.5387 81.1447 67.952 80.206C67.38 79.2673 67.094 78.204 67.094 77.016C67.094 75.8427 67.38 74.7867 67.952 73.848C68.5387 72.9093 69.338 72.1833 70.35 71.67C71.3767 71.142 72.5353 70.878 73.826 70.878C75.1167 70.878 76.2753 71.142 77.302 71.67C78.3287 72.1833 79.128 72.9093 79.7 73.848C80.272 74.772 80.558 75.828 80.558 77.016C80.558 78.204 80.272 79.2673 79.7 80.206C79.128 81.1447 78.3287 81.878 77.302 82.406C76.2753 82.934 75.1167 83.198 73.826 83.198ZM73.826 79.876C74.5593 79.876 75.1607 79.6267 75.63 79.128C76.0993 78.6147 76.334 77.9107 76.334 77.016C76.334 76.136 76.0993 75.4467 75.63 74.948C75.1607 74.4493 74.5593 74.2 73.826 74.2C73.0927 74.2 72.4913 74.4493 72.022 74.948C71.5527 75.4467 71.318 76.136 71.318 77.016C71.318 77.9107 71.5527 78.6147 72.022 79.128C72.4913 79.6267 73.0927 79.876 73.826 79.876ZM93.6341 71.076L88.7061 83H84.3941L79.4881 71.076H83.7781L86.6381 78.358L89.6521 71.076H93.6341Z" fill="black"/>
<rect x="7" y="60" width="44" height="4" fill="black"/>
</svg>
